HIERARCHY
ROOT Hips
{
	OFFSET 0.000000 0.000000 0.000000 
	CHANNELS 6 Xposition Yposition Zposition Zrotation Yrotation Xrotation
	JOINT LeftUpLeg
	{
		OFFSET 1.363060 -1.794630 0.839290 
		CHANNELS 3 Zrotation Yrotation Xrotation
		JOINT LeftLeg
		{
			OFFSET 2.448110 -6.726130 0.000000 
			CHANNELS 3 Zrotation Yrotation Xrotation
			JOINT LeftFoot
			{
				OFFSET 2.562200 -7.039590 0.000000 
				CHANNELS 3 Zrotation Yrotation Xrotation
				JOINT LeftToeBase
				{
					OFFSET 0.157640 -0.433110 2.322550 
					CHANNELS 3 Zrotation Yrotation Xrotation
					End Site
					{
						OFFSET 0.000000 0.000000 0.000000 
					}
				}
			}
		}
	}
	JOINT RightUpLeg
	{
		OFFSET -1.305520 -1.794630 0.839290 
		CHANNELS 3 Zrotation Yrotation Xrotation
		JOINT RightLeg
		{
			OFFSET -2.542530 -6.985550 0.000000 
			CHANNELS 3 Zrotation Yrotation Xrotation
			JOINT RightFoot
			{
				OFFSET -2.568260 -7.056230 0.000000 
				CHANNELS 3 Zrotation Yrotation Xrotation
				JOINT RightToeBase
				{
					OFFSET -0.164730 -0.452590 2.363150 
					CHANNELS 3 Zrotation Yrotation Xrotation
					End Site
					{
						OFFSET 0.000000 0.000000 0.000000 
					}
				}
			}
		}
	}
	JOINT Spine
	{
		OFFSET 0.028270 2.035590 -0.193380 
		CHANNELS 3 Zrotation Yrotation Xrotation
		JOINT Spine1
		{
			OFFSET 0.056720 2.048850 -0.042750 
			CHANNELS 3 Zrotation Yrotation Xrotation
			JOINT Neck1
			{
				OFFSET -0.054170 1.746240 0.172020 
				CHANNELS 3 Zrotation Yrotation Xrotation
				JOINT Head
				{
					OFFSET 0.104070 1.761360 -0.123970 
					CHANNELS 3 Zrotation Yrotation Xrotation
					End Site
					{
						OFFSET 0.000000 0.000000 0.000000 
					}
				}
			}
			JOINT LeftArm
			{
				OFFSET 3.362410 1.200890 -0.311210 
				CHANNELS 3 Zrotation Yrotation Xrotation
				JOINT LeftForeArm
				{
					OFFSET 4.983000 -0.000000 -0.000000 
					CHANNELS 3 Zrotation Yrotation Xrotation
					JOINT LeftHand
					{
						OFFSET 3.483560 -0.000000 -0.000000 
						CHANNELS 3 Zrotation Yrotation Xrotation
						JOINT LeftHandIndex1
						{
							OFFSET 0.715260 -0.000000 -0.000000 
							CHANNELS 3 Zrotation Yrotation Xrotation
							End Site
							{
								OFFSET 0.000000 0.000000 0.000000 
							}
						}
					}
				}
			}
			JOINT RightArm
			{
				OFFSET -3.136600 1.374050 -0.404650 
				CHANNELS 3 Zrotation Yrotation Xrotation
				JOINT RightForeArm
				{
					OFFSET -5.241900 -0.000000 -0.000000 
					CHANNELS 3 Zrotation Yrotation Xrotation
					JOINT RightHand
					{
						OFFSET -3.444170 -0.000000 -0.000000 
						CHANNELS 3 Zrotation Yrotation Xrotation
						JOINT RightHandIndex1
						{
							OFFSET -0.622530 -0.000000 -0.000000 
							CHANNELS 3 Zrotation Yrotation Xrotation
							End Site
							{
								OFFSET 0.000000 0.000000 0.000000 
							}
						}
					}
				}
			}
		}
	}
}
MOTION
Frames: 10
Frame Time: 0.041667
-4.635985 17.870534 -35.875748 177.666940 34.073905 -178.354292 -6.191716 -20.525565 -21.579281 0.078330 12.929553 32.456651 -6.769843 19.502212 -4.080936 3.233000 -11.063000 -32.492700 38.401771 19.020431 8.229423 3.245630 -4.651354 16.945184 4.101143 -15.219092 -4.487189 -2.498100 -9.834400 28.442100 5.325714 0.508897 3.035598 -2.113408 0.910081 -12.118610 31.150140 -22.820395 6.140710 9.145500 -11.110100 5.744800 -99.925815 28.302064 27.877036 20.713660 -19.770337 -5.038803 2.349862 -0.430235 -0.287796 -7.125000 0.000000 0.000000 78.812680 -1.185805 45.271430 -34.828497 37.885077 -13.814668 0.726858 0.694171 2.939933 7.125000 0.000000 0.000000 
-4.553995 17.887428 -36.072926 178.092340 35.114474 -177.873445 -4.892093 -23.227258 -20.893899 -0.601488 12.076228 29.612919 -7.620613 21.286884 -5.044822 3.891400 -12.014500 -35.783200 38.493722 18.349231 9.006257 3.357330 -4.245487 16.075791 3.775602 -14.124739 -3.855640 -2.402100 -9.657700 27.875200 5.505946 0.517021 3.191623 -2.334761 0.877791 -11.574426 30.538084 -22.693861 5.983500 8.873100 -11.071800 5.522600 -99.800222 28.163141 27.392169 20.737253 -19.796027 -5.043155 2.363315 -0.395110 1.420415 -7.125000 0.000000 0.000000 78.531769 -0.762540 46.246986 -35.496464 38.403686 -14.298959 0.692372 0.708088 2.970345 7.125000 0.000000 0.000000 
-4.485118 17.884002 -36.221194 178.319144 35.893409 -177.728391 -3.840552 -25.479818 -20.388828 -1.188116 11.256244 27.040113 -8.113216 22.222124 -5.768944 4.075700 -12.260400 -36.659600 38.654880 17.985682 9.986090 3.478505 -3.832348 15.169018 3.663861 -13.735531 -3.537196 -2.648000 -10.102200 29.308400 5.602180 0.509880 3.087968 -2.404818 0.869481 -11.799072 30.530666 -22.547430 5.932581 8.906800 -11.020200 5.450400 -99.501446 28.041262 26.710146 20.624233 -19.660765 -4.981641 2.385667 -0.357479 4.382701 -7.125000 0.000000 0.000000 78.349419 -0.470316 46.963430 -36.145946 38.916228 -14.771768 0.656457 0.716513 3.259566 7.125000 0.000000 0.000000 
-4.408563 17.883175 -36.371824 178.635404 36.689471 -177.451621 -2.780802 -27.753395 -19.998794 -1.639247 10.556470 24.878950 -8.544798 23.041436 -6.597362 4.235000 -12.466700 -37.403600 38.915148 17.766962 11.037645 3.603105 -3.416542 14.232913 3.674782 -13.753189 -3.297346 -2.968000 -10.643100 31.085500 5.822207 0.598373 2.952961 -2.491347 0.906278 -11.926846 30.900908 -22.223047 5.478613 9.141200 -10.943100 5.247900 -99.096264 27.848126 26.036243 20.366142 -19.352813 -4.862461 2.423883 -0.308726 8.426726 -7.125000 0.000000 0.000000 78.242432 -0.174583 47.434317 -36.592753 39.254081 -15.084191 0.638461 0.715703 3.760947 7.125000 0.000000 0.000000 
-4.323974 17.880930 -36.530724 178.678899 37.565977 -177.305317 -1.447132 -31.454099 -19.423389 -2.029561 9.889075 22.857605 -8.951951 23.870650 -8.255956 3.835500 -11.938200 -35.513600 38.874398 17.359646 11.811256 3.665987 -3.144039 13.663288 3.713675 -13.830931 -2.818667 -2.908300 -10.545100 30.760700 5.832127 0.698982 2.827803 -2.511258 0.945006 -11.961154 30.059172 -23.057674 7.179047 8.695300 -11.120500 5.985300 -98.569916 27.661328 25.196483 20.116169 -19.028238 -4.745637 2.467414 -0.258493 12.973015 -7.125000 0.000000 0.000000 78.301890 0.170993 47.800095 -37.063226 39.589692 -15.398979 0.630797 0.709317 4.376191 7.125000 0.000000 0.000000 
-4.239975 17.873133 -36.685844 178.659899 38.505857 -177.198753 -0.594798 -33.908082 -19.048117 -2.280024 9.381347 21.314933 -9.573236 25.241859 -9.291092 4.330000 -12.587100 -37.841800 38.759649 16.947055 12.561691 3.732383 -2.859943 13.062602 3.761009 -13.933633 -2.332227 -2.822500 -10.401900 30.288400 5.479100 0.861872 3.240342 -2.745803 1.002974 -11.560712 29.893481 -23.133697 7.443502 8.588400 -11.111600 6.110100 -97.567839 27.016686 24.268630 19.901372 -18.766279 -4.645546 2.511504 -0.243536 17.561856 -7.125000 0.000000 0.000000 78.322300 0.586940 47.981251 -37.984047 40.231414 -16.042204 0.609749 0.705678 4.842838 7.125000 0.000000 0.000000 
-4.152550 17.864627 -36.837537 178.847507 39.493086 -176.854583 1.057527 -37.851916 -18.697179 -2.541430 8.899361 19.950903 -9.390550 24.840502 -12.120948 3.139700 -10.917800 -32.003200 38.865879 16.764150 13.238960 3.779750 -2.650325 12.615008 3.818953 -14.101820 -1.924251 -2.726600 -10.238700 29.753100 5.457894 1.053472 3.070310 -2.887304 1.077408 -11.542549 29.865825 -22.956662 7.503504 8.613100 -11.029100 6.059500 -96.822416 26.645629 22.447722 19.760595 -18.651336 -4.616636 2.591179 -0.332228 22.392798 -7.125000 0.000000 0.000000 78.155336 0.429505 48.316307 -38.948865 40.894727 -16.729397 0.585115 0.702141 4.904970 7.125000 0.000000 0.000000 
-4.062054 17.864863 -36.988049 179.053088 40.328473 -176.472896 2.365873 -41.522296 -18.305470 -2.589189 8.622616 18.875340 -10.719517 28.056069 -13.557526 4.402700 -12.677800 -38.174200 38.910451 16.494557 13.748550 3.805126 -2.504535 12.329321 3.789421 -13.986664 -1.601970 -2.328800 -9.519800 27.435400 5.635366 1.172092 2.749249 -2.919450 1.121735 -11.624065 29.805048 -22.839247 7.694302 8.638600 -10.964600 6.082500 -96.360603 26.409076 21.640548 19.692707 -18.538069 -4.534535 2.565406 -0.338970 23.005849 -7.125000 0.000000 0.000000 78.353220 0.697685 48.540546 -39.038820 40.954544 -16.789083 0.584437 0.701652 5.101257 7.125000 0.000000 0.000000 
-3.970849 17.850331 -37.150375 179.003406 41.175944 -176.274497 4.659180 -48.042855 -17.694638 -2.816947 8.216885 18.212253 -8.722955 24.236019 -19.655100 0.849400 -5.878100 -16.431200 38.784111 16.509795 14.540995 3.836548 -2.342121 12.055490 3.767395 -13.882064 -1.638258 -2.042800 -8.954700 25.653800 5.650052 1.288122 2.590585 -2.927816 1.182499 -11.575942 29.932704 -22.727024 7.776307 8.733400 -10.910700 6.110600 -95.787426 26.013815 21.069867 19.662721 -18.466389 -4.460180 2.528436 -0.352212 22.270975 -7.125000 0.000000 0.000000 78.355809 0.859033 48.818070 -39.117081 41.007837 -16.853534 0.584493 0.700090 5.157704 7.125000 0.000000 0.000000 
-3.878108 17.838635 -37.316600 178.664805 41.949023 -176.409105 4.955504 -50.362252 -17.372066 -2.883737 7.988266 17.769315 -8.624999 24.408576 -21.361920 0.703800 -5.362100 -14.944200 38.147843 15.895866 15.050168 3.840402 -2.190383 11.875434 3.498668 -12.926737 -1.368927 -2.104100 -9.079600 26.044700 5.383380 1.359099 2.519452 -2.976226 1.211990 -11.508286 29.860659 -22.666208 7.808109 8.727000 -10.889100 6.079100 -95.008501 25.596836 20.446283 19.650710 -18.427489 -4.400724 2.498986 -0.361675 21.483165 -7.125000 0.000000 0.000000 78.413571 0.866911 49.071639 -39.210005 41.068586 -16.923951 0.585707 0.697813 5.183399 7.125000 0.000000 0.000000 
